<?xml version="1.0" encoding="UTF-8" standalone="no"?>
<svg width="333.375mm" height="25.4mm"
 xmlns="http://www.w3.org/2000/svg" xmlns:xlink="http://www.w3.org/1999/xlink"  version="1.2" baseProfile="tiny">
<title>Qt SVG Document</title>
<desc>Generated with Qt</desc>
<defs>
</defs>
<g fill="none" stroke="black" stroke-width="1" fill-rule="evenodd" stroke-linecap="square" stroke-linejoin="bevel" >

<g fill="none" stroke="#000000" stroke-opacity="1" stroke-width="1" stroke-linecap="square" stroke-linejoin="bevel" transform="matrix(1,0,0,1,0,0)"
font-family="Ubuntu" font-size="11" font-weight="400" font-style="normal" 
>
</g>

<g fill="none" stroke="#000000" stroke-opacity="1" stroke-width="1" stroke-linecap="square" stroke-linejoin="bevel" transform="matrix(1,0,0,1,0,0)"
font-family="Ubuntu" font-size="11" font-weight="400" font-style="normal" 
>
</g>

<g fill="none" stroke="#000000" stroke-opacity="1" stroke-width="1" stroke-linecap="square" stroke-linejoin="bevel" transform="matrix(1.99928,0,0,1.99928,0.00079971,71.9739)"
font-family="Ubuntu" font-size="11" font-weight="400" font-style="normal" 
>
</g>

<g fill="#ffffff" fill-opacity="1" stroke="none" transform="matrix(1.99928,0,0,1.99928,0.00079971,71.9739)"
font-family="Ubuntu" font-size="11" font-weight="400" font-style="normal" 
>
<rect x="-0.0004" y="-36" width="472.671" height="36"/>
</g>

<g fill="none" stroke="#000000" stroke-opacity="1" stroke-width="1" stroke-linecap="square" stroke-linejoin="bevel" transform="matrix(1.99928,0,0,1.99928,0.00079971,71.9739)"
font-family="Ubuntu" font-size="11" font-weight="400" font-style="normal" 
>
</g>

<g fill="none" stroke="#000000" stroke-opacity="1" stroke-width="1" stroke-linecap="square" stroke-linejoin="bevel" transform="matrix(1.99928,0,0,1.99928,0.00079971,71.9739)"
font-family="Ubuntu" font-size="11" font-weight="400" font-style="normal" 
>
</g>

<g fill="none" stroke="#000000" stroke-opacity="1" stroke-width="1" stroke-linecap="square" stroke-linejoin="bevel" transform="matrix(1.99928,0,0,1.99928,0.00079971,71.9739)"
font-family="Ubuntu" font-size="11" font-weight="400" font-style="normal" 
>
</g>

<g fill="none" stroke="#000000" stroke-opacity="1" stroke-width="1" stroke-linecap="square" stroke-linejoin="bevel" transform="matrix(1.99928,0,0,1.99928,0.00079971,71.9739)"
font-family="Ubuntu" font-size="11" font-weight="400" font-style="normal" 
>
</g>

<g fill="none" stroke="#000000" stroke-opacity="1" stroke-width="1" stroke-linecap="square" stroke-linejoin="round" transform="matrix(1.99928,0,0,1.99928,0.00079971,71.9739)"
font-family="Ubuntu" font-size="11" font-weight="400" font-style="normal" 
>
<ellipse cx="349.18" cy="-18" rx="122.991" ry="17.5"/>
</g>

<g fill="none" stroke="#000000" stroke-opacity="1" stroke-width="1" stroke-linecap="square" stroke-linejoin="bevel" transform="matrix(1.99928,0,0,1.99928,0.00079971,71.9739)"
font-family="Ubuntu" font-size="11" font-weight="400" font-style="normal" 
>
</g>

<g fill="none" stroke="#000000" stroke-opacity="1" stroke-width="1" stroke-linecap="square" stroke-linejoin="bevel" transform="matrix(1.99928,0,0,1.99928,520.735,22.9917)"
font-family="Ubuntu" font-size="11" font-weight="400" font-style="normal" 
>
</g>

<g fill="none" stroke="#000000" stroke-opacity="1" stroke-width="1" stroke-linecap="square" stroke-linejoin="bevel" transform="matrix(1.99928,0,0,1.99928,520.735,22.9917)"
font-family="sans" font-size="11" font-weight="100" font-style="normal" 
>
</g>

<g fill="#000000" fill-opacity="1" stroke="#000000" stroke-opacity="1" stroke-width="1" stroke-linecap="square" stroke-linejoin="round" transform="matrix(1.99928,0,0,1.99928,520.735,22.9917)"
font-family="sans" font-size="11" font-weight="100" font-style="normal" 
>
<path vector-effect="none" fill-rule="nonzero" d="M2.79688,1.98438 L3.70312,1.98438 L0.90625,11.0156 L0,11.0156 L2.79688,1.98438 M8.21875,4.90625 C8.11458,4.84375 7.9974,4.79688 7.86719,4.76562 C7.73698,4.73438 7.59375,4.71875 7.4375,4.71875 C6.875,4.71875 6.44531,4.90104 6.14844,5.26562 C5.85156,5.63021 5.70312,6.15104 5.70312,6.82812 L5.70312,10 L4.70312,10 L4.70312,3.98438 L5.70312,3.98438 L5.70312,4.92188 C5.90104,4.55729 6.16667,4.28646 6.5,4.10938 C6.83333,3.93229 7.23958,3.84375 7.71875,3.84375 C7.79167,3.84375 7.86719,3.84635 7.94531,3.85156 C8.02344,3.85677 8.11458,3.86979 8.21875,3.89062 L8.21875,4.90625 M14.4062,6.75 L14.4062,7.23438 L9.85938,7.23438 C9.90104,7.91146 10.1042,8.42708 10.4688,8.78125 C10.8333,9.13542 11.3438,9.3125 12,9.3125 C12.3854,9.3125 12.7552,9.26562 13.1094,9.17188 C13.4635,9.07812 13.8177,8.94271 14.1719,8.76562 L14.1719,9.6875 C13.8177,9.84375 13.4531,9.96094 13.0781,10.0391 C12.7031,10.1172 12.3281,10.1562 11.9531,10.1562 C10.9844,10.1562 10.2214,9.8776 9.66406,9.32031 C9.10677,8.76302 8.82812,8.00521 8.82812,7.04688 C8.82812,6.06771 9.09375,5.28906 9.625,4.71094 C10.1562,4.13281 10.875,3.84375 11.7812,3.84375 C12.5833,3.84375 13.2214,4.10417 13.6953,4.625 C14.1693,5.14583 14.4062,5.85417 14.4062,6.75 M13.4062,6.45312 C13.4062,5.91146 13.2578,5.47917 12.9609,5.15625 C12.6641,4.83333 12.2708,4.67188 11.7812,4.67188 C11.2292,4.67188 10.7891,4.82812 10.4609,5.14062 C10.1328,5.45312 9.94271,5.89062 9.89062,6.45312 L13.4062,6.45312 M20.3438,4.21875 L20.3438,5.14062 C20.0729,4.98438 19.7969,4.86719 19.5156,4.78906 C19.2344,4.71094 18.9479,4.67188 18.6562,4.67188 C18.0208,4.67188 17.526,4.875 17.1719,5.28125 C16.8177,5.6875 16.6406,6.26042 16.6406,7 C16.6406,7.72917 16.8177,8.29688 17.1719,8.70312 C17.526,9.10938 18.0208,9.3125 18.6562,9.3125 C18.9479,9.3125 19.2344,9.27604 19.5156,9.20312 C19.7969,9.13021 20.0729,9.01562 20.3438,8.85938 L20.3438,9.76562 C20.0729,9.90104 19.7891,10 19.4922,10.0625 C19.1953,10.125 18.8802,10.1562 18.5469,10.1562 C17.6406,10.1562 16.9219,9.8724 16.3906,9.30469 C15.8594,8.73698 15.5938,7.96875 15.5938,7 C15.5938,6.02083 15.862,5.25 16.3984,4.6875 C16.9349,4.125 17.6719,3.84375 18.6094,3.84375 C18.9219,3.84375 19.2214,3.875 19.5078,3.9375 C19.7943,4 20.0729,4.09375 20.3438,4.21875 M24.4062,4.67188 C23.875,4.67188 23.4557,4.88021 23.1484,5.29688 C22.8411,5.71354 22.6875,6.28125 22.6875,7 C22.6875,7.71875 22.8385,8.28385 23.1406,8.69531 C23.4427,9.10677 23.8646,9.3125 24.4062,9.3125 C24.9271,9.3125 25.3411,9.10677 25.6484,8.69531 C25.9557,8.28385 26.1094,7.71875 26.1094,7 C26.1094,6.28125 25.9557,5.71354 25.6484,5.29688 C25.3411,4.88021 24.9271,4.67188 24.4062,4.67188 M24.4062,3.84375 C25.2604,3.84375 25.9323,4.1224 26.4219,4.67969 C26.9115,5.23698 27.1562,6.01042 27.1562,7 C27.1562,7.97917 26.9115,8.75 26.4219,9.3125 C25.9323,9.875 25.2604,10.1562 24.4062,10.1562 C23.5417,10.1562 22.8646,9.875 22.375,9.3125 C21.8854,8.75 21.6406,7.97917 21.6406,7 C21.6406,6.01042 21.8854,5.23698 22.375,4.67969 C22.8646,4.1224 23.5417,3.84375 24.4062,3.84375 M32.2656,4.90625 C32.1615,4.84375 32.0443,4.79688 31.9141,4.76562 C31.7839,4.73438 31.6406,4.71875 31.4844,4.71875 C30.9219,4.71875 30.4922,4.90104 30.1953,5.26562 C29.8984,5.63021 29.75,6.15104 29.75,6.82812 L29.75,10 L28.75,10 L28.75,3.98438 L29.75,3.98438 L29.75,4.92188 C29.9479,4.55729 30.2135,4.28646 30.5469,4.10938 C30.8802,3.93229 31.2865,3.84375 31.7656,3.84375 C31.8385,3.84375 31.9141,3.84635 31.9922,3.85156 C32.0703,3.85677 32.1615,3.86979 32.2656,3.89062 L32.2656,4.90625 M37.2656,4.89062 L37.2656,1.64062 L38.25,1.64062 L38.25,10 L37.2656,10 L37.2656,9.09375 C37.0573,9.45833 36.7943,9.72656 36.4766,9.89844 C36.1589,10.0703 35.776,10.1562 35.3281,10.1562 C34.6094,10.1562 34.0208,9.86719 33.5625,9.28906 C33.1042,8.71094 32.875,7.94792 32.875,7 C32.875,6.05208 33.1042,5.28906 33.5625,4.71094 C34.0208,4.13281 34.6094,3.84375 35.3281,3.84375 C35.776,3.84375 36.1589,3.92969 36.4766,4.10156 C36.7943,4.27344 37.0573,4.53646 37.2656,4.89062 M33.8906,7 C33.8906,7.72917 34.0417,8.29948 34.3438,8.71094 C34.6458,9.1224 35.0573,9.32812 35.5781,9.32812 C36.099,9.32812 36.5104,9.1224 36.8125,8.71094 C37.1146,8.29948 37.2656,7.72917 37.2656,7 C37.2656,6.27083 37.1146,5.70052 36.8125,5.28906 C36.5104,4.8776 36.099,4.67188 35.5781,4.67188 C35.0573,4.67188 34.6458,4.8776 34.3438,5.28906 C34.0417,5.70052 33.8906,6.27083 33.8906,7 M44.8438,11.8281 L44.8438,12.5938 L39.125,12.5938 L39.125,11.8281 L44.8438,11.8281 M46.0938,9.09375 L47.875,9.09375 L47.875,2.96875 L45.9375,3.35938 L45.9375,2.375 L47.8594,1.98438 L48.9531,1.98438 L48.9531,9.09375 L50.7188,9.09375 L50.7188,10 L46.0938,10 L46.0938,9.09375 M52.9062,1.98438 L57.1719,1.98438 L57.1719,2.89062 L53.9062,2.89062 L53.9062,4.85938 C54.0625,4.80729 54.2188,4.76823 54.375,4.74219 C54.5312,4.71615 54.6875,4.70312 54.8438,4.70312 C55.7396,4.70312 56.4479,4.94792 56.9688,5.4375 C57.4896,5.92708 57.75,6.58854 57.75,7.42188 C57.75,8.28646 57.4818,8.95833 56.9453,9.4375 C56.4089,9.91667 55.651,10.1562 54.6719,10.1562 C54.3385,10.1562 53.9974,10.1276 53.6484,10.0703 C53.2995,10.013 52.9375,9.92708 52.5625,9.8125 L52.5625,8.71875 C52.8854,8.89583 53.2188,9.02865 53.5625,9.11719 C53.9062,9.20573 54.2708,9.25 54.6562,9.25 C55.2812,9.25 55.7734,9.08594 56.1328,8.75781 C56.4922,8.42969 56.6719,7.98438 56.6719,7.42188 C56.6719,6.86979 56.4922,6.42969 56.1328,6.10156 C55.7734,5.77344 55.2812,5.60938 54.6562,5.60938 C54.3646,5.60938 54.0755,5.64323 53.7891,5.71094 C53.5026,5.77865 53.2083,5.88021 52.9062,6.01562 L52.9062,1.98438 M59.9062,9.82812 L59.9062,8.84375 C60.1771,8.96875 60.4531,9.06771 60.7344,9.14062 C61.0156,9.21354 61.2917,9.25 61.5625,9.25 C62.2812,9.25 62.8281,9.00781 63.2031,8.52344 C63.5781,8.03906 63.7917,7.30729 63.8438,6.32812 C63.6354,6.63021 63.3724,6.86458 63.0547,7.03125 C62.737,7.19792 62.3854,7.28125 62,7.28125 C61.1979,7.28125 60.5625,7.03906 60.0938,6.55469 C59.625,6.07031 59.3906,5.40625 59.3906,4.5625 C59.3906,3.73958 59.6354,3.07812 60.125,2.57812 C60.6146,2.07812 61.2656,1.82812 62.0781,1.82812 C63.0052,1.82812 63.7109,2.1849 64.1953,2.89844 C64.6797,3.61198 64.9219,4.64583 64.9219,6 C64.9219,7.26042 64.6224,8.26823 64.0234,9.02344 C63.4245,9.77865 62.6198,10.1562 61.6094,10.1562 C61.3385,10.1562 61.0625,10.1302 60.7812,10.0781 C60.5,10.026 60.2083,9.94271 59.9062,9.82812 M62.0781,6.4375 C62.5573,6.4375 62.9401,6.27083 63.2266,5.9375 C63.513,5.60417 63.6562,5.14583 63.6562,4.5625 C63.6562,3.98958 63.513,3.53385 63.2266,3.19531 C62.9401,2.85677 62.5573,2.6875 62.0781,2.6875 C61.5885,2.6875 61.2005,2.85677 60.9141,3.19531 C60.6276,3.53385 60.4844,3.98958 60.4844,4.5625 C60.4844,5.14583 60.6276,5.60417 60.9141,5.9375 C61.2005,6.27083 61.5885,6.4375 62.0781,6.4375 M69.3125,5.5625 C68.8333,5.5625 68.4505,5.72917 68.1641,6.0625 C67.8776,6.39583 67.7344,6.84896 67.7344,7.42188 C67.7344,8.00521 67.8776,8.46354 68.1641,8.79688 C68.4505,9.13021 68.8333,9.29688 69.3125,9.29688 C69.8021,9.29688 70.1901,9.13021 70.4766,8.79688 C70.763,8.46354 70.9062,8.00521 70.9062,7.42188 C70.9062,6.84896 70.763,6.39583 70.4766,6.0625 C70.1901,5.72917 69.8021,5.5625 69.3125,5.5625 M71.4688,2.15625 L71.4688,3.14062 C71.1979,3.01562 70.9245,2.91927 70.6484,2.85156 C70.3724,2.78385 70.099,2.75 69.8281,2.75 C69.1094,2.75 68.5599,2.99219 68.1797,3.47656 C67.7995,3.96094 67.5833,4.69271 67.5312,5.67188 C67.75,5.35938 68.0182,5.11979 68.3359,4.95312 C68.6536,4.78646 69.0052,4.70312 69.3906,4.70312 C70.1927,4.70312 70.8281,4.94792 71.2969,5.4375 C71.7656,5.92708 72,6.58854 72,7.42188 C72,8.24479 71.7552,8.90625 71.2656,9.40625 C70.776,9.90625 70.125,10.1562 69.3125,10.1562 C68.3854,10.1562 67.6771,9.79948 67.1875,9.08594 C66.6979,8.3724 66.4531,7.34375 66.4531,6 C66.4531,4.72917 66.7552,3.71615 67.3594,2.96094 C67.9635,2.20573 68.7708,1.82812 69.7812,1.82812 C70.0521,1.82812 70.3255,1.85677 70.6016,1.91406 C70.8776,1.97135 71.1667,2.05208 71.4688,2.15625 M74.7812,9.09375 L78.5625,9.09375 L78.5625,10 L73.4844,10 L73.4844,9.09375 C73.8906,8.66667 74.4505,8.09375 75.1641,7.375 C75.8776,6.65625 76.3229,6.19271 76.5,5.98438 C76.8438,5.58854 77.0859,5.25521 77.2266,4.98438 C77.3672,4.71354 77.4375,4.44792 77.4375,4.1875 C77.4375,3.76042 77.2891,3.41406 76.9922,3.14844 C76.6953,2.88281 76.3021,2.75 75.8125,2.75 C75.4792,2.75 75.1224,2.8099 74.7422,2.92969 C74.362,3.04948 73.9583,3.22917 73.5312,3.46875 L73.5312,2.375 C73.9688,2.19792 74.3776,2.0625 74.7578,1.96875 C75.138,1.875 75.4844,1.82812 75.7969,1.82812 C76.6302,1.82812 77.2943,2.03646 77.7891,2.45312 C78.2839,2.86979 78.5312,3.42708 78.5312,4.125 C78.5312,4.45833 78.4688,4.77083 78.3438,5.0625 C78.2188,5.35417 77.9948,5.70312 77.6719,6.10938 C77.5781,6.21354 77.2917,6.51302 76.8125,7.00781 C76.3333,7.5026 75.6562,8.19792 74.7812,9.09375 M84.125,5.67188 C84.6458,5.78646 85.0521,6.01823 85.3438,6.36719 C85.6354,6.71615 85.7812,7.15104 85.7812,7.67188 C85.7812,8.46354 85.5078,9.07552 84.9609,9.50781 C84.4141,9.9401 83.6406,10.1562 82.6406,10.1562 C82.2969,10.1562 81.9479,10.1224 81.5938,10.0547 C81.2396,9.98698 80.875,9.89062 80.5,9.76562 L80.5,8.70312 C80.8021,8.88021 81.1302,9.01562 81.4844,9.10938 C81.8385,9.20312 82.2135,9.25 82.6094,9.25 C83.2865,9.25 83.8021,9.11458 84.1562,8.84375 C84.5104,8.57292 84.6875,8.18229 84.6875,7.67188 C84.6875,7.19271 84.5234,6.82031 84.1953,6.55469 C83.8672,6.28906 83.4062,6.15625 82.8125,6.15625 L81.875,6.15625 L81.875,5.26562 L82.8594,5.26562 C83.3906,5.26562 83.7969,5.15885 84.0781,4.94531 C84.3594,4.73177 84.5,4.42708 84.5,4.03125 C84.5,3.61458 84.3542,3.29688 84.0625,3.07812 C83.7708,2.85938 83.3542,2.75 82.8125,2.75 C82.5208,2.75 82.2031,2.78125 81.8594,2.84375 C81.5156,2.90625 81.1406,3.00521 80.7344,3.14062 L80.7344,2.17188 C81.151,2.05729 81.5391,1.97135 81.8984,1.91406 C82.2578,1.85677 82.5938,1.82812 82.9062,1.82812 C83.7292,1.82812 84.3828,2.01562 84.8672,2.39062 C85.3516,2.76562 85.5938,3.27604 85.5938,3.92188 C85.5938,4.35938 85.4661,4.73177 85.2109,5.03906 C84.9557,5.34635 84.5938,5.55729 84.125,5.67188 M90.1406,2.6875 C89.5781,2.6875 89.1562,2.96354 88.875,3.51562 C88.5938,4.06771 88.4531,4.89583 88.4531,6 C88.4531,7.09375 88.5938,7.91667 88.875,8.46875 C89.1562,9.02083 89.5781,9.29688 90.1406,9.29688 C90.7031,9.29688 91.125,9.02083 91.4062,8.46875 C91.6875,7.91667 91.8281,7.09375 91.8281,6 C91.8281,4.89583 91.6875,4.06771 91.4062,3.51562 C91.125,2.96354 90.7031,2.6875 90.1406,2.6875 M90.1406,1.82812 C91.0365,1.82812 91.7214,2.1849 92.1953,2.89844 C92.6693,3.61198 92.9062,4.64583 92.9062,6 C92.9062,7.34375 92.6693,8.3724 92.1953,9.08594 C91.7214,9.79948 91.0365,10.1562 90.1406,10.1562 C89.2448,10.1562 88.5573,9.79948 88.0781,9.08594 C87.599,8.3724 87.3594,7.34375 87.3594,6 C87.3594,4.64583 87.599,3.61198 88.0781,2.89844 C88.5573,2.1849 89.2448,1.82812 90.1406,1.82812 M94.8125,1.98438 L99.0781,1.98438 L99.0781,2.89062 L95.8125,2.89062 L95.8125,4.85938 C95.9688,4.80729 96.125,4.76823 96.2812,4.74219 C96.4375,4.71615 96.5938,4.70312 96.75,4.70312 C97.6458,4.70312 98.3542,4.94792 98.875,5.4375 C99.3958,5.92708 99.6562,6.58854 99.6562,7.42188 C99.6562,8.28646 99.388,8.95833 98.8516,9.4375 C98.3151,9.91667 97.5573,10.1562 96.5781,10.1562 C96.2448,10.1562 95.9036,10.1276 95.5547,10.0703 C95.2057,10.013 94.8438,9.92708 94.4688,9.8125 L94.4688,8.71875 C94.7917,8.89583 95.125,9.02865 95.4688,9.11719 C95.8125,9.20573 96.1771,9.25 96.5625,9.25 C97.1875,9.25 97.6797,9.08594 98.0391,8.75781 C98.3984,8.42969 98.5781,7.98438 98.5781,7.42188 C98.5781,6.86979 98.3984,6.42969 98.0391,6.10156 C97.6797,5.77344 97.1875,5.60938 96.5625,5.60938 C96.2708,5.60938 95.9818,5.64323 95.6953,5.71094 C95.4089,5.77865 95.1146,5.88021 94.8125,6.01562 L94.8125,1.98438 M101.812,9.82812 L101.812,8.84375 C102.083,8.96875 102.359,9.06771 102.641,9.14062 C102.922,9.21354 103.198,9.25 103.469,9.25 C104.188,9.25 104.734,9.00781 105.109,8.52344 C105.484,8.03906 105.698,7.30729 105.75,6.32812 C105.542,6.63021 105.279,6.86458 104.961,7.03125 C104.643,7.19792 104.292,7.28125 103.906,7.28125 C103.104,7.28125 102.469,7.03906 102,6.55469 C101.531,6.07031 101.297,5.40625 101.297,4.5625 C101.297,3.73958 101.542,3.07812 102.031,2.57812 C102.521,2.07812 103.172,1.82812 103.984,1.82812 C104.911,1.82812 105.617,2.1849 106.102,2.89844 C106.586,3.61198 106.828,4.64583 106.828,6 C106.828,7.26042 106.529,8.26823 105.93,9.02344 C105.331,9.77865 104.526,10.1562 103.516,10.1562 C103.245,10.1562 102.969,10.1302 102.688,10.0781 C102.406,10.026 102.115,9.94271 101.812,9.82812 M103.984,6.4375 C104.464,6.4375 104.846,6.27083 105.133,5.9375 C105.419,5.60417 105.562,5.14583 105.562,4.5625 C105.562,3.98958 105.419,3.53385 105.133,3.19531 C104.846,2.85677 104.464,2.6875 103.984,2.6875 C103.495,2.6875 103.107,2.85677 102.82,3.19531 C102.534,3.53385 102.391,3.98958 102.391,4.5625 C102.391,5.14583 102.534,5.60417 102.82,5.9375 C103.107,6.27083 103.495,6.4375 103.984,6.4375 M108.797,9.82812 L108.797,8.84375 C109.068,8.96875 109.344,9.06771 109.625,9.14062 C109.906,9.21354 110.182,9.25 110.453,9.25 C111.172,9.25 111.719,9.00781 112.094,8.52344 C112.469,8.03906 112.682,7.30729 112.734,6.32812 C112.526,6.63021 112.263,6.86458 111.945,7.03125 C111.628,7.19792 111.276,7.28125 110.891,7.28125 C110.089,7.28125 109.453,7.03906 108.984,6.55469 C108.516,6.07031 108.281,5.40625 108.281,4.5625 C108.281,3.73958 108.526,3.07812 109.016,2.57812 C109.505,2.07812 110.156,1.82812 110.969,1.82812 C111.896,1.82812 112.602,2.1849 113.086,2.89844 C113.57,3.61198 113.812,4.64583 113.812,6 C113.812,7.26042 113.513,8.26823 112.914,9.02344 C112.315,9.77865 111.51,10.1562 110.5,10.1562 C110.229,10.1562 109.953,10.1302 109.672,10.0781 C109.391,10.026 109.099,9.94271 108.797,9.82812 M110.969,6.4375 C111.448,6.4375 111.831,6.27083 112.117,5.9375 C112.404,5.60417 112.547,5.14583 112.547,4.5625 C112.547,3.98958 112.404,3.53385 112.117,3.19531 C111.831,2.85677 111.448,2.6875 110.969,2.6875 C110.479,2.6875 110.091,2.85677 109.805,3.19531 C109.518,3.53385 109.375,3.98958 109.375,4.5625 C109.375,5.14583 109.518,5.60417 109.805,5.9375 C110.091,6.27083 110.479,6.4375 110.969,6.4375 M115.484,1.98438 L120.641,1.98438 L120.641,2.4375 L117.719,10 L116.594,10 L119.328,2.89062 L115.484,2.89062 L115.484,1.98438 M122.766,9.82812 L122.766,8.84375 C123.036,8.96875 123.312,9.06771 123.594,9.14062 C123.875,9.21354 124.151,9.25 124.422,9.25 C125.141,9.25 125.688,9.00781 126.062,8.52344 C126.438,8.03906 126.651,7.30729 126.703,6.32812 C126.495,6.63021 126.232,6.86458 125.914,7.03125 C125.596,7.19792 125.245,7.28125 124.859,7.28125 C124.057,7.28125 123.422,7.03906 122.953,6.55469 C122.484,6.07031 122.25,5.40625 122.25,4.5625 C122.25,3.73958 122.495,3.07812 122.984,2.57812 C123.474,2.07812 124.125,1.82812 124.938,1.82812 C125.865,1.82812 126.57,2.1849 127.055,2.89844 C127.539,3.61198 127.781,4.64583 127.781,6 C127.781,7.26042 127.482,8.26823 126.883,9.02344 C126.284,9.77865 125.479,10.1562 124.469,10.1562 C124.198,10.1562 123.922,10.1302 123.641,10.0781 C123.359,10.026 123.068,9.94271 122.766,9.82812 M124.938,6.4375 C125.417,6.4375 125.799,6.27083 126.086,5.9375 C126.372,5.60417 126.516,5.14583 126.516,4.5625 C126.516,3.98958 126.372,3.53385 126.086,3.19531 C125.799,2.85677 125.417,2.6875 124.938,2.6875 C124.448,2.6875 124.06,2.85677 123.773,3.19531 C123.487,3.53385 123.344,3.98958 123.344,4.5625 C123.344,5.14583 123.487,5.60417 123.773,5.9375 C124.06,6.27083 124.448,6.4375 124.938,6.4375 M132.047,6.1875 C131.526,6.1875 131.12,6.32552 130.828,6.60156 C130.536,6.8776 130.391,7.26042 130.391,7.75 C130.391,8.22917 130.536,8.60677 130.828,8.88281 C131.12,9.15885 131.526,9.29688 132.047,9.29688 C132.557,9.29688 132.961,9.15885 133.258,8.88281 C133.555,8.60677 133.703,8.22917 133.703,7.75 C133.703,7.26042 133.557,6.8776 133.266,6.60156 C132.974,6.32552 132.568,6.1875 132.047,6.1875 M130.953,5.73438 C130.495,5.61979 130.135,5.40365 129.875,5.08594 C129.615,4.76823 129.484,4.38021 129.484,3.92188 C129.484,3.27604 129.711,2.76562 130.164,2.39062 C130.617,2.01562 131.245,1.82812 132.047,1.82812 C132.839,1.82812 133.464,2.01562 133.922,2.39062 C134.38,2.76562 134.609,3.27604 134.609,3.92188 C134.609,4.38021 134.479,4.76823 134.219,5.08594 C133.958,5.40365 133.599,5.61979 133.141,5.73438 C133.661,5.84896 134.068,6.08333 134.359,6.4375 C134.651,6.79167 134.797,7.22917 134.797,7.75 C134.797,8.52083 134.56,9.11458 134.086,9.53125 C133.612,9.94792 132.932,10.1562 132.047,10.1562 C131.161,10.1562 130.482,9.94792 130.008,9.53125 C129.534,9.11458 129.297,8.52083 129.297,7.75 C129.297,7.22917 129.443,6.79167 129.734,6.4375 C130.026,6.08333 130.432,5.84896 130.953,5.73438 M130.562,4.01562 C130.562,4.43229 130.693,4.75781 130.953,4.99219 C131.214,5.22656 131.578,5.34375 132.047,5.34375 C132.505,5.34375 132.867,5.22656 133.133,4.99219 C133.398,4.75781 133.531,4.43229 133.531,4.01562 C133.531,3.59896 133.398,3.27344 133.133,3.03906 C132.867,2.80469 132.505,2.6875 132.047,2.6875 C131.578,2.6875 131.214,2.80469 130.953,3.03906 C130.693,3.27344 130.562,3.59896 130.562,4.01562 M139.688,2.92188 L136.953,7.20312 L139.688,7.20312 L139.688,2.92188 M139.406,1.98438 L140.766,1.98438 L140.766,7.20312 L141.906,7.20312 L141.906,8.10938 L140.766,8.10938 L140.766,10 L139.688,10 L139.688,8.10938 L136.062,8.10938 L136.062,7.0625 L139.406,1.98438 M143.875,9.09375 L145.656,9.09375 L145.656,2.96875 L143.719,3.35938 L143.719,2.375 L145.641,1.98438 L146.734,1.98438 L146.734,9.09375 L148.5,9.09375 L148.5,10 L143.875,10 L143.875,9.09375 M153,6.1875 C152.479,6.1875 152.073,6.32552 151.781,6.60156 C151.49,6.8776 151.344,7.26042 151.344,7.75 C151.344,8.22917 151.49,8.60677 151.781,8.88281 C152.073,9.15885 152.479,9.29688 153,9.29688 C153.51,9.29688 153.914,9.15885 154.211,8.88281 C154.508,8.60677 154.656,8.22917 154.656,7.75 C154.656,7.26042 154.51,6.8776 154.219,6.60156 C153.927,6.32552 153.521,6.1875 153,6.1875 M151.906,5.73438 C151.448,5.61979 151.089,5.40365 150.828,5.08594 C150.568,4.76823 150.438,4.38021 150.438,3.92188 C150.438,3.27604 150.664,2.76562 151.117,2.39062 C151.57,2.01562 152.198,1.82812 153,1.82812 C153.792,1.82812 154.417,2.01562 154.875,2.39062 C155.333,2.76562 155.562,3.27604 155.562,3.92188 C155.562,4.38021 155.432,4.76823 155.172,5.08594 C154.911,5.40365 154.552,5.61979 154.094,5.73438 C154.615,5.84896 155.021,6.08333 155.312,6.4375 C155.604,6.79167 155.75,7.22917 155.75,7.75 C155.75,8.52083 155.513,9.11458 155.039,9.53125 C154.565,9.94792 153.885,10.1562 153,10.1562 C152.115,10.1562 151.435,9.94792 150.961,9.53125 C150.487,9.11458 150.25,8.52083 150.25,7.75 C150.25,7.22917 150.396,6.79167 150.688,6.4375 C150.979,6.08333 151.385,5.84896 151.906,5.73438 M151.516,4.01562 C151.516,4.43229 151.646,4.75781 151.906,4.99219 C152.167,5.22656 152.531,5.34375 153,5.34375 C153.458,5.34375 153.82,5.22656 154.086,4.99219 C154.352,4.75781 154.484,4.43229 154.484,4.01562 C154.484,3.59896 154.352,3.27344 154.086,3.03906 C153.82,2.80469 153.458,2.6875 153,2.6875 C152.531,2.6875 152.167,2.80469 151.906,3.03906 C151.646,3.27344 151.516,3.59896 151.516,4.01562 M157.844,9.09375 L159.625,9.09375 L159.625,2.96875 L157.688,3.35938 L157.688,2.375 L159.609,1.98438 L160.703,1.98438 L160.703,9.09375 L162.469,9.09375 L162.469,10 L157.844,10 L157.844,9.09375 M164.656,1.98438 L168.922,1.98438 L168.922,2.89062 L165.656,2.89062 L165.656,4.85938 C165.812,4.80729 165.969,4.76823 166.125,4.74219 C166.281,4.71615 166.438,4.70312 166.594,4.70312 C167.49,4.70312 168.198,4.94792 168.719,5.4375 C169.24,5.92708 169.5,6.58854 169.5,7.42188 C169.5,8.28646 169.232,8.95833 168.695,9.4375 C168.159,9.91667 167.401,10.1562 166.422,10.1562 C166.089,10.1562 165.747,10.1276 165.398,10.0703 C165.049,10.013 164.688,9.92708 164.312,9.8125 L164.312,8.71875 C164.635,8.89583 164.969,9.02865 165.312,9.11719 C165.656,9.20573 166.021,9.25 166.406,9.25 C167.031,9.25 167.523,9.08594 167.883,8.75781 C168.242,8.42969 168.422,7.98438 168.422,7.42188 C168.422,6.86979 168.242,6.42969 167.883,6.10156 C167.523,5.77344 167.031,5.60938 166.406,5.60938 C166.115,5.60938 165.826,5.64323 165.539,5.71094 C165.253,5.77865 164.958,5.88021 164.656,6.01562 L164.656,1.98438 M173.953,2.6875 C173.391,2.6875 172.969,2.96354 172.688,3.51562 C172.406,4.06771 172.266,4.89583 172.266,6 C172.266,7.09375 172.406,7.91667 172.688,8.46875 C172.969,9.02083 173.391,9.29688 173.953,9.29688 C174.516,9.29688 174.938,9.02083 175.219,8.46875 C175.5,7.91667 175.641,7.09375 175.641,6 C175.641,4.89583 175.5,4.06771 175.219,3.51562 C174.938,2.96354 174.516,2.6875 173.953,2.6875 M173.953,1.82812 C174.849,1.82812 175.534,2.1849 176.008,2.89844 C176.482,3.61198 176.719,4.64583 176.719,6 C176.719,7.34375 176.482,8.3724 176.008,9.08594 C175.534,9.79948 174.849,10.1562 173.953,10.1562 C173.057,10.1562 172.37,9.79948 171.891,9.08594 C171.411,8.3724 171.172,7.34375 171.172,6 C171.172,4.64583 171.411,3.61198 171.891,2.89844 C172.37,2.1849 173.057,1.82812 173.953,1.82812 "/>
</g>

<g fill="none" stroke="#000000" stroke-opacity="1" stroke-width="1" stroke-linecap="square" stroke-linejoin="bevel" transform="matrix(1.99928,0,0,1.99928,520.735,22.9917)"
font-family="sans" font-size="11" font-weight="100" font-style="normal" 
>
</g>

<g fill="none" stroke="#000000" stroke-opacity="1" stroke-width="1" stroke-linecap="square" stroke-linejoin="bevel" transform="matrix(1.99928,0,0,1.99928,520.735,22.9917)"
font-family="Ubuntu" font-size="11" font-weight="400" font-style="normal" 
>
</g>

<g fill="none" stroke="#000000" stroke-opacity="1" stroke-width="1" stroke-linecap="square" stroke-linejoin="bevel" transform="matrix(1.99928,0,0,1.99928,0.00079971,71.9739)"
font-family="Ubuntu" font-size="11" font-weight="400" font-style="normal" 
>
</g>

<g fill="none" stroke="#000000" stroke-opacity="1" stroke-width="1" stroke-linecap="square" stroke-linejoin="bevel" transform="matrix(1.99928,0,0,1.99928,0.00079971,71.9739)"
font-family="Ubuntu" font-size="11" font-weight="400" font-style="normal" 
>
</g>

<g fill="none" stroke="#000000" stroke-opacity="1" stroke-width="1" stroke-linecap="square" stroke-linejoin="bevel" transform="matrix(1.99928,0,0,1.99928,0.00079971,71.9739)"
font-family="Ubuntu" font-size="11" font-weight="400" font-style="normal" 
>
</g>

<g fill="none" stroke="#000000" stroke-opacity="1" stroke-width="1" stroke-linecap="square" stroke-linejoin="round" transform="matrix(1.99928,0,0,1.99928,0.00079971,71.9739)"
font-family="Ubuntu" font-size="11" font-weight="400" font-style="normal" 
>
<ellipse cx="70.844" cy="-18" rx="70.3444" ry="17.5"/>
</g>

<g fill="none" stroke="#000000" stroke-opacity="1" stroke-width="1" stroke-linecap="square" stroke-linejoin="bevel" transform="matrix(1.99928,0,0,1.99928,0.00079971,71.9739)"
font-family="Ubuntu" font-size="11" font-weight="400" font-style="normal" 
>
</g>

<g fill="none" stroke="#000000" stroke-opacity="1" stroke-width="1" stroke-linecap="square" stroke-linejoin="bevel" transform="matrix(1.99928,0,0,1.99928,48.2807,22.9917)"
font-family="Ubuntu" font-size="11" font-weight="400" font-style="normal" 
>
</g>

<g fill="none" stroke="#000000" stroke-opacity="1" stroke-width="1" stroke-linecap="square" stroke-linejoin="bevel" transform="matrix(1.99928,0,0,1.99928,48.2807,22.9917)"
font-family="sans" font-size="11" font-weight="100" font-style="normal" 
>
</g>

<g fill="#000000" fill-opacity="1" stroke="#000000" stroke-opacity="1" stroke-width="1" stroke-linecap="square" stroke-linejoin="round" transform="matrix(1.99928,0,0,1.99928,48.2807,22.9917)"
font-family="sans" font-size="11" font-weight="100" font-style="normal" 
>
<path vector-effect="none" fill-rule="nonzero" d="M2.79688,1.98438 L3.70312,1.98438 L0.90625,11.0156 L0,11.0156 L2.79688,1.98438 M8.57812,4.15625 L8.57812,5.09375 C8.29688,4.94792 8.00521,4.84115 7.70312,4.77344 C7.40104,4.70573 7.08854,4.67188 6.76562,4.67188 C6.27604,4.67188 5.90885,4.7474 5.66406,4.89844 C5.41927,5.04948 5.29688,5.27083 5.29688,5.5625 C5.29688,5.79167 5.38542,5.97135 5.5625,6.10156 C5.73958,6.23177 6.09375,6.35938 6.625,6.48438 L6.95312,6.5625 C7.66146,6.70833 8.16146,6.91927 8.45312,7.19531 C8.74479,7.47135 8.89062,7.85417 8.89062,8.34375 C8.89062,8.89583 8.67188,9.33594 8.23438,9.66406 C7.79688,9.99219 7.1875,10.1562 6.40625,10.1562 C6.08333,10.1562 5.7474,10.125 5.39844,10.0625 C5.04948,10 4.68229,9.90625 4.29688,9.78125 L4.29688,8.76562 C4.66146,8.95312 5.02083,9.09375 5.375,9.1875 C5.72917,9.28125 6.08333,9.32812 6.4375,9.32812 C6.89583,9.32812 7.25,9.2474 7.5,9.08594 C7.75,8.92448 7.875,8.70312 7.875,8.42188 C7.875,8.15104 7.78646,7.94271 7.60938,7.79688 C7.43229,7.65104 7.03646,7.51562 6.42188,7.39062 L6.07812,7.29688 C5.46354,7.17188 5.02083,6.97656 4.75,6.71094 C4.47917,6.44531 4.34375,6.07812 4.34375,5.60938 C4.34375,5.04688 4.54427,4.61198 4.94531,4.30469 C5.34635,3.9974 5.91667,3.84375 6.65625,3.84375 C7.02083,3.84375 7.36458,3.86979 7.6875,3.92188 C8.01042,3.97396 8.30729,4.05208 8.57812,4.15625 M10.4531,3.98438 L11.4531,3.98438 L11.4531,10 L10.4531,10 L10.4531,3.98438 M10.4531,1.64062 L11.4531,1.64062 L11.4531,2.89062 L10.4531,2.89062 L10.4531,1.64062 M18.1875,5.14062 C18.4375,4.69271 18.7344,4.36458 19.0781,4.15625 C19.4219,3.94792 19.8281,3.84375 20.2969,3.84375 C20.9219,3.84375 21.4036,4.0625 21.7422,4.5 C22.0807,4.9375 22.25,5.5625 22.25,6.375 L22.25,10 L21.25,10 L21.25,6.40625 C21.25,5.82292 21.1484,5.39323 20.9453,5.11719 C20.7422,4.84115 20.4323,4.70312 20.0156,4.70312 C19.5052,4.70312 19.1016,4.8724 18.8047,5.21094 C18.5078,5.54948 18.3594,6.01042 18.3594,6.59375 L18.3594,10 L17.3594,10 L17.3594,6.40625 C17.3594,5.82292 17.2578,5.39323 17.0547,5.11719 C16.8516,4.84115 16.5365,4.70312 16.1094,4.70312 C15.6094,4.70312 15.2109,4.8724 14.9141,5.21094 C14.6172,5.54948 14.4688,6.01042 14.4688,6.59375 L14.4688,10 L13.4688,10 L13.4688,3.98438 L14.4688,3.98438 L14.4688,4.92188 C14.6875,4.54688 14.9557,4.27344 15.2734,4.10156 C15.5911,3.92969 15.9635,3.84375 16.3906,3.84375 C16.8281,3.84375 17.2005,3.95312 17.5078,4.17188 C17.8151,4.39062 18.0417,4.71354 18.1875,5.14062 M24.1094,7.625 L24.1094,3.98438 L25.0938,3.98438 L25.0938,7.59375 C25.0938,8.15625 25.2057,8.58073 25.4297,8.86719 C25.6536,9.15365 25.9844,9.29688 26.4219,9.29688 C26.9635,9.29688 27.388,9.1276 27.6953,8.78906 C28.0026,8.45052 28.1562,7.98438 28.1562,7.39062 L28.1562,3.98438 L29.1406,3.98438 L29.1406,10 L28.1562,10 L28.1562,9.07812 C27.9167,9.44271 27.638,9.71354 27.3203,9.89062 C27.0026,10.0677 26.6354,10.1562 26.2188,10.1562 C25.5312,10.1562 25.0078,9.9401 24.6484,9.50781 C24.2891,9.07552 24.1094,8.44792 24.1094,7.625 M31.1719,1.64062 L32.1719,1.64062 L32.1719,10 L31.1719,10 L31.1719,1.64062 M36.9531,6.96875 C36.1615,6.96875 35.612,7.0625 35.3047,7.25 C34.9974,7.4375 34.8438,7.75 34.8438,8.1875 C34.8438,8.53125 34.9583,8.80729 35.1875,9.01562 C35.4167,9.22396 35.7292,9.32812 36.125,9.32812 C36.6771,9.32812 37.1172,9.13281 37.4453,8.74219 C37.7734,8.35156 37.9375,7.83854 37.9375,7.20312 L37.9375,6.96875 L36.9531,6.96875 M38.9219,6.5625 L38.9219,10 L37.9375,10 L37.9375,9.09375 C37.7188,9.45833 37.4401,9.72656 37.1016,9.89844 C36.763,10.0703 36.349,10.1562 35.8594,10.1562 C35.2448,10.1562 34.7552,9.98438 34.3906,9.64062 C34.026,9.29688 33.8438,8.83333 33.8438,8.25 C33.8438,7.57292 34.0703,7.0625 34.5234,6.71875 C34.9766,6.375 35.6562,6.20312 36.5625,6.20312 L37.9375,6.20312 L37.9375,6.10938 C37.9375,5.65104 37.7891,5.29688 37.4922,5.04688 C37.1953,4.79688 36.776,4.67188 36.2344,4.67188 C35.8906,4.67188 35.5547,4.71354 35.2266,4.79688 C34.8984,4.88021 34.5833,5.00521 34.2812,5.17188 L34.2812,4.26562 C34.6458,4.11979 35,4.01302 35.3438,3.94531 C35.6875,3.8776 36.0156,3.84375 36.3281,3.84375 C37.2031,3.84375 37.8542,4.06771 38.2812,4.51562 C38.7083,4.96354 38.9219,5.64583 38.9219,6.5625 M41.9375,2.28125 L41.9375,3.98438 L43.9688,3.98438 L43.9688,4.75 L41.9375,4.75 L41.9375,8.01562 C41.9375,8.50521 42.0052,8.82031 42.1406,8.96094 C42.276,9.10156 42.5469,9.17188 42.9531,9.17188 L43.9688,9.17188 L43.9688,10 L42.9531,10 C42.1927,10 41.6667,9.85677 41.375,9.57031 C41.0833,9.28385 40.9375,8.76562 40.9375,8.01562 L40.9375,4.75 L40.2188,4.75 L40.2188,3.98438 L40.9375,3.98438 L40.9375,2.28125 L41.9375,2.28125 M50.4219,6.75 L50.4219,7.23438 L45.875,7.23438 C45.9167,7.91146 46.1198,8.42708 46.4844,8.78125 C46.849,9.13542 47.3594,9.3125 48.0156,9.3125 C48.401,9.3125 48.7708,9.26562 49.125,9.17188 C49.4792,9.07812 49.8333,8.94271 50.1875,8.76562 L50.1875,9.6875 C49.8333,9.84375 49.4688,9.96094 49.0938,10.0391 C48.7188,10.1172 48.3438,10.1562 47.9688,10.1562 C47,10.1562 46.237,9.8776 45.6797,9.32031 C45.1224,8.76302 44.8438,8.00521 44.8438,7.04688 C44.8438,6.06771 45.1094,5.28906 45.6406,4.71094 C46.1719,4.13281 46.8906,3.84375 47.7969,3.84375 C48.599,3.84375 49.237,4.10417 49.7109,4.625 C50.1849,5.14583 50.4219,5.85417 50.4219,6.75 M49.4219,6.45312 C49.4219,5.91146 49.2734,5.47917 48.9766,5.15625 C48.6797,4.83333 48.2865,4.67188 47.7969,4.67188 C47.2448,4.67188 46.8047,4.82812 46.4766,5.14062 C46.1484,5.45312 45.9583,5.89062 45.9062,6.45312 L49.4219,6.45312 M56,4.89062 L56,1.64062 L56.9844,1.64062 L56.9844,10 L56,10 L56,9.09375 C55.7917,9.45833 55.5286,9.72656 55.2109,9.89844 C54.8932,10.0703 54.5104,10.1562 54.0625,10.1562 C53.3438,10.1562 52.7552,9.86719 52.2969,9.28906 C51.8385,8.71094 51.6094,7.94792 51.6094,7 C51.6094,6.05208 51.8385,5.28906 52.2969,4.71094 C52.7552,4.13281 53.3438,3.84375 54.0625,3.84375 C54.5104,3.84375 54.8932,3.92969 55.2109,4.10156 C55.5286,4.27344 55.7917,4.53646 56,4.89062 M52.625,7 C52.625,7.72917 52.776,8.29948 53.0781,8.71094 C53.3802,9.1224 53.7917,9.32812 54.3125,9.32812 C54.8333,9.32812 55.2448,9.1224 55.5469,8.71094 C55.849,8.29948 56,7.72917 56,7 C56,6.27083 55.849,5.70052 55.5469,5.28906 C55.2448,4.8776 54.8333,4.67188 54.3125,4.67188 C53.7917,4.67188 53.3802,4.8776 53.0781,5.28906 C52.776,5.70052 52.625,6.27083 52.625,7 M63.5781,11.8281 L63.5781,12.5938 L57.8594,12.5938 L57.8594,11.8281 L63.5781,11.8281 M65.4844,2.28125 L65.4844,3.98438 L67.5156,3.98438 L67.5156,4.75 L65.4844,4.75 L65.4844,8.01562 C65.4844,8.50521 65.5521,8.82031 65.6875,8.96094 C65.8229,9.10156 66.0938,9.17188 66.5,9.17188 L67.5156,9.17188 L67.5156,10 L66.5,10 C65.7396,10 65.2135,9.85677 64.9219,9.57031 C64.6302,9.28385 64.4844,8.76562 64.4844,8.01562 L64.4844,4.75 L63.7656,4.75 L63.7656,3.98438 L64.4844,3.98438 L64.4844,2.28125 L65.4844,2.28125 M68.7188,7.625 L68.7188,3.98438 L69.7031,3.98438 L69.7031,7.59375 C69.7031,8.15625 69.8151,8.58073 70.0391,8.86719 C70.263,9.15365 70.5938,9.29688 71.0312,9.29688 C71.5729,9.29688 71.9974,9.1276 72.3047,8.78906 C72.612,8.45052 72.7656,7.98438 72.7656,7.39062 L72.7656,3.98438 L73.75,3.98438 L73.75,10 L72.7656,10 L72.7656,9.07812 C72.526,9.44271 72.2474,9.71354 71.9297,9.89062 C71.612,10.0677 71.2448,10.1562 70.8281,10.1562 C70.1406,10.1562 69.6172,9.9401 69.2578,9.50781 C68.8984,9.07552 68.7188,8.44792 68.7188,7.625 M79.2656,4.90625 C79.1615,4.84375 79.0443,4.79688 78.9141,4.76562 C78.7839,4.73438 78.6406,4.71875 78.4844,4.71875 C77.9219,4.71875 77.4922,4.90104 77.1953,5.26562 C76.8984,5.63021 76.75,6.15104 76.75,6.82812 L76.75,10 L75.75,10 L75.75,3.98438 L76.75,3.98438 L76.75,4.92188 C76.9479,4.55729 77.2135,4.28646 77.5469,4.10938 C77.8802,3.93229 78.2865,3.84375 78.7656,3.84375 C78.8385,3.84375 78.9141,3.84635 78.9922,3.85156 C79.0703,3.85677 79.1615,3.86979 79.2656,3.89062 L79.2656,4.90625 M81.2812,2.28125 L81.2812,3.98438 L83.3125,3.98438 L83.3125,4.75 L81.2812,4.75 L81.2812,8.01562 C81.2812,8.50521 81.349,8.82031 81.4844,8.96094 C81.6198,9.10156 81.8906,9.17188 82.2969,9.17188 L83.3125,9.17188 L83.3125,10 L82.2969,10 C81.5365,10 81.0104,9.85677 80.7188,9.57031 C80.4271,9.28385 80.2812,8.76562 80.2812,8.01562 L80.2812,4.75 L79.5625,4.75 L79.5625,3.98438 L80.2812,3.98438 L80.2812,2.28125 L81.2812,2.28125 M84.6094,1.64062 L85.6094,1.64062 L85.6094,10 L84.6094,10 L84.6094,1.64062 M92.8125,6.75 L92.8125,7.23438 L88.2656,7.23438 C88.3073,7.91146 88.5104,8.42708 88.875,8.78125 C89.2396,9.13542 89.75,9.3125 90.4062,9.3125 C90.7917,9.3125 91.1615,9.26562 91.5156,9.17188 C91.8698,9.07812 92.224,8.94271 92.5781,8.76562 L92.5781,9.6875 C92.224,9.84375 91.8594,9.96094 91.4844,10.0391 C91.1094,10.1172 90.7344,10.1562 90.3594,10.1562 C89.3906,10.1562 88.6276,9.8776 88.0703,9.32031 C87.513,8.76302 87.2344,8.00521 87.2344,7.04688 C87.2344,6.06771 87.5,5.28906 88.0312,4.71094 C88.5625,4.13281 89.2812,3.84375 90.1875,3.84375 C90.9896,3.84375 91.6276,4.10417 92.1016,4.625 C92.5755,5.14583 92.8125,5.85417 92.8125,6.75 M91.8125,6.45312 C91.8125,5.91146 91.6641,5.47917 91.3672,5.15625 C91.0703,4.83333 90.6771,4.67188 90.1875,4.67188 C89.6354,4.67188 89.1953,4.82812 88.8672,5.14062 C88.5391,5.45312 88.349,5.89062 88.2969,6.45312 L91.8125,6.45312"/>
</g>

<g fill="none" stroke="#000000" stroke-opacity="1" stroke-width="1" stroke-linecap="square" stroke-linejoin="bevel" transform="matrix(1.99928,0,0,1.99928,48.2807,22.9917)"
font-family="sans" font-size="11" font-weight="100" font-style="normal" 
>
</g>

<g fill="none" stroke="#000000" stroke-opacity="1" stroke-width="1" stroke-linecap="square" stroke-linejoin="bevel" transform="matrix(1.99928,0,0,1.99928,48.2807,22.9917)"
font-family="Ubuntu" font-size="11" font-weight="400" font-style="normal" 
>
</g>

<g fill="none" stroke="#000000" stroke-opacity="1" stroke-width="1" stroke-linecap="square" stroke-linejoin="bevel" transform="matrix(1.99928,0,0,1.99928,0.00079971,71.9739)"
font-family="Ubuntu" font-size="11" font-weight="400" font-style="normal" 
>
</g>

<g fill="none" stroke="#000000" stroke-opacity="1" stroke-width="1" stroke-linecap="square" stroke-linejoin="bevel" transform="matrix(1.99928,0,0,1.99928,0.00079971,71.9739)"
font-family="Ubuntu" font-size="11" font-weight="400" font-style="normal" 
>
</g>

<g fill="none" stroke="#000000" stroke-opacity="1" stroke-width="1" stroke-linecap="square" stroke-linejoin="bevel" transform="matrix(1.99928,0,0,1.99928,0.00079971,71.9739)"
font-family="Ubuntu" font-size="11" font-weight="400" font-style="normal" 
>
</g>

<g fill="none" stroke="#000000" stroke-opacity="1" stroke-width="1" stroke-linecap="square" stroke-linejoin="round" transform="matrix(1.99928,0,0,1.99928,0.00079971,71.9739)"
font-family="Ubuntu" font-size="11" font-weight="400" font-style="normal" 
>
<path vector-effect="none" fill-rule="evenodd" d="M141.93,-18 C164.38,-18 190.01,-18 215.41,-18 "/>
</g>

<g fill="none" stroke="#000000" stroke-opacity="1" stroke-width="1" stroke-linecap="square" stroke-linejoin="bevel" transform="matrix(1.99928,0,0,1.99928,0.00079971,71.9739)"
font-family="Ubuntu" font-size="11" font-weight="400" font-style="normal" 
>
</g>

<g fill="none" stroke="#000000" stroke-opacity="1" stroke-width="1" stroke-linecap="square" stroke-linejoin="bevel" transform="matrix(1.99928,0,0,1.99928,296.789,7.9971)"
font-family="Ubuntu" font-size="11" font-weight="400" font-style="normal" 
>
</g>

<g fill="none" stroke="#000000" stroke-opacity="1" stroke-width="1" stroke-linecap="square" stroke-linejoin="bevel" transform="matrix(1.99928,0,0,1.99928,296.789,7.9971)"
font-family="sans" font-size="11" font-weight="100" font-style="normal" 
>
</g>

<g fill="#000000" fill-opacity="1" stroke="#000000" stroke-opacity="1" stroke-width="1" stroke-linecap="square" stroke-linejoin="round" transform="matrix(1.99928,0,0,1.99928,296.789,7.9971)"
font-family="sans" font-size="11" font-weight="100" font-style="normal" 
>
<path vector-effect="none" fill-rule="nonzero" d="M2.79688,1.98438 L3.70312,1.98438 L0.90625,11.0156 L0,11.0156 L2.79688,1.98438 M5.71875,2.28125 L5.71875,3.98438 L7.75,3.98438 L7.75,4.75 L5.71875,4.75 L5.71875,8.01562 C5.71875,8.50521 5.78646,8.82031 5.92188,8.96094 C6.05729,9.10156 6.32812,9.17188 6.73438,9.17188 L7.75,9.17188 L7.75,10 L6.73438,10 C5.97396,10 5.44792,9.85677 5.15625,9.57031 C4.86458,9.28385 4.71875,8.76562 4.71875,8.01562 L4.71875,4.75 L4,4.75 L4,3.98438 L4.71875,3.98438 L4.71875,2.28125 L5.71875,2.28125 M8.95312,7.625 L8.95312,3.98438 L9.9375,3.98438 L9.9375,7.59375 C9.9375,8.15625 10.0495,8.58073 10.2734,8.86719 C10.4974,9.15365 10.8281,9.29688 11.2656,9.29688 C11.8073,9.29688 12.2318,9.1276 12.5391,8.78906 C12.8464,8.45052 13,7.98438 13,7.39062 L13,3.98438 L13.9844,3.98438 L13.9844,10 L13,10 L13,9.07812 C12.7604,9.44271 12.4818,9.71354 12.1641,9.89062 C11.8464,10.0677 11.4792,10.1562 11.0625,10.1562 C10.375,10.1562 9.85156,9.9401 9.49219,9.50781 C9.13281,9.07552 8.95312,8.44792 8.95312,7.625 M19.5,4.90625 C19.3958,4.84375 19.2786,4.79688 19.1484,4.76562 C19.0182,4.73438 18.875,4.71875 18.7188,4.71875 C18.1562,4.71875 17.7266,4.90104 17.4297,5.26562 C17.1328,5.63021 16.9844,6.15104 16.9844,6.82812 L16.9844,10 L15.9844,10 L15.9844,3.98438 L16.9844,3.98438 L16.9844,4.92188 C17.1823,4.55729 17.4479,4.28646 17.7812,4.10938 C18.1146,3.93229 18.5208,3.84375 19,3.84375 C19.0729,3.84375 19.1484,3.84635 19.2266,3.85156 C19.3047,3.85677 19.3958,3.86979 19.5,3.89062 L19.5,4.90625 M21.5156,2.28125 L21.5156,3.98438 L23.5469,3.98438 L23.5469,4.75 L21.5156,4.75 L21.5156,8.01562 C21.5156,8.50521 21.5833,8.82031 21.7188,8.96094 C21.8542,9.10156 22.125,9.17188 22.5312,9.17188 L23.5469,9.17188 L23.5469,10 L22.5312,10 C21.7708,10 21.2448,9.85677 20.9531,9.57031 C20.6615,9.28385 20.5156,8.76562 20.5156,8.01562 L20.5156,4.75 L19.7969,4.75 L19.7969,3.98438 L20.5156,3.98438 L20.5156,2.28125 L21.5156,2.28125 M24.8438,1.64062 L25.8438,1.64062 L25.8438,10 L24.8438,10 L24.8438,1.64062 M33.0469,6.75 L33.0469,7.23438 L28.5,7.23438 C28.5417,7.91146 28.7448,8.42708 29.1094,8.78125 C29.474,9.13542 29.9844,9.3125 30.6406,9.3125 C31.026,9.3125 31.3958,9.26562 31.75,9.17188 C32.1042,9.07812 32.4583,8.94271 32.8125,8.76562 L32.8125,9.6875 C32.4583,9.84375 32.0938,9.96094 31.7188,10.0391 C31.3438,10.1172 30.9688,10.1562 30.5938,10.1562 C29.625,10.1562 28.862,9.8776 28.3047,9.32031 C27.7474,8.76302 27.4688,8.00521 27.4688,7.04688 C27.4688,6.06771 27.7344,5.28906 28.2656,4.71094 C28.7969,4.13281 29.5156,3.84375 30.4219,3.84375 C31.224,3.84375 31.862,4.10417 32.3359,4.625 C32.8099,5.14583 33.0469,5.85417 33.0469,6.75 M32.0469,6.45312 C32.0469,5.91146 31.8984,5.47917 31.6016,5.15625 C31.3047,4.83333 30.9115,4.67188 30.4219,4.67188 C29.8698,4.67188 29.4297,4.82812 29.1016,5.14062 C28.7734,5.45312 28.5833,5.89062 28.5312,6.45312 L32.0469,6.45312 M34.9844,9.09375 L36.7656,9.09375 L36.7656,2.96875 L34.8281,3.35938 L34.8281,2.375 L36.75,1.98438 L37.8438,1.98438 L37.8438,9.09375 L39.6094,9.09375 L39.6094,10 L34.9844,10 L34.9844,9.09375 M43.4062,1.98438 L44.3125,1.98438 L41.5156,11.0156 L40.6094,11.0156 L43.4062,1.98438 M46.3125,9.09375 L46.3125,12.2812 L45.3125,12.2812 L45.3125,3.98438 L46.3125,3.98438 L46.3125,4.89062 C46.5104,4.53646 46.7682,4.27344 47.0859,4.10156 C47.4036,3.92969 47.7865,3.84375 48.2344,3.84375 C48.9635,3.84375 49.5547,4.13281 50.0078,4.71094 C50.4609,5.28906 50.6875,6.05208 50.6875,7 C50.6875,7.94792 50.4609,8.71094 50.0078,9.28906 C49.5547,9.86719 48.9635,10.1562 48.2344,10.1562 C47.7865,10.1562 47.4036,10.0703 47.0859,9.89844 C46.7682,9.72656 46.5104,9.45833 46.3125,9.09375 M49.6719,7 C49.6719,6.27083 49.5208,5.70052 49.2188,5.28906 C48.9167,4.8776 48.5052,4.67188 47.9844,4.67188 C47.4635,4.67188 47.0547,4.8776 46.7578,5.28906 C46.4609,5.70052 46.3125,6.27083 46.3125,7 C46.3125,7.72917 46.4609,8.29948 46.7578,8.71094 C47.0547,9.1224 47.4635,9.32812 47.9844,9.32812 C48.5052,9.32812 48.9167,9.1224 49.2188,8.71094 C49.5208,8.29948 49.6719,7.72917 49.6719,7 M54.6562,4.67188 C54.125,4.67188 53.7057,4.88021 53.3984,5.29688 C53.0911,5.71354 52.9375,6.28125 52.9375,7 C52.9375,7.71875 53.0885,8.28385 53.3906,8.69531 C53.6927,9.10677 54.1146,9.3125 54.6562,9.3125 C55.1771,9.3125 55.5911,9.10677 55.8984,8.69531 C56.2057,8.28385 56.3594,7.71875 56.3594,7 C56.3594,6.28125 56.2057,5.71354 55.8984,5.29688 C55.5911,4.88021 55.1771,4.67188 54.6562,4.67188 M54.6562,3.84375 C55.5104,3.84375 56.1823,4.1224 56.6719,4.67969 C57.1615,5.23698 57.4062,6.01042 57.4062,7 C57.4062,7.97917 57.1615,8.75 56.6719,9.3125 C56.1823,9.875 55.5104,10.1562 54.6562,10.1562 C53.7917,10.1562 53.1146,9.875 52.625,9.3125 C52.1354,8.75 51.8906,7.97917 51.8906,7 C51.8906,6.01042 52.1354,5.23698 52.625,4.67969 C53.1146,4.1224 53.7917,3.84375 54.6562,3.84375 M62.875,4.15625 L62.875,5.09375 C62.5938,4.94792 62.3021,4.84115 62,4.77344 C61.6979,4.70573 61.3854,4.67188 61.0625,4.67188 C60.5729,4.67188 60.2057,4.7474 59.9609,4.89844 C59.7161,5.04948 59.5938,5.27083 59.5938,5.5625 C59.5938,5.79167 59.6823,5.97135 59.8594,6.10156 C60.0365,6.23177 60.3906,6.35938 60.9219,6.48438 L61.25,6.5625 C61.9583,6.70833 62.4583,6.91927 62.75,7.19531 C63.0417,7.47135 63.1875,7.85417 63.1875,8.34375 C63.1875,8.89583 62.9688,9.33594 62.5312,9.66406 C62.0938,9.99219 61.4844,10.1562 60.7031,10.1562 C60.3802,10.1562 60.0443,10.125 59.6953,10.0625 C59.3464,10 58.9792,9.90625 58.5938,9.78125 L58.5938,8.76562 C58.9583,8.95312 59.3177,9.09375 59.6719,9.1875 C60.026,9.28125 60.3802,9.32812 60.7344,9.32812 C61.1927,9.32812 61.5469,9.2474 61.7969,9.08594 C62.0469,8.92448 62.1719,8.70312 62.1719,8.42188 C62.1719,8.15104 62.0833,7.94271 61.9062,7.79688 C61.7292,7.65104 61.3333,7.51562 60.7188,7.39062 L60.375,7.29688 C59.7604,7.17188 59.3177,6.97656 59.0469,6.71094 C58.776,6.44531 58.6406,6.07812 58.6406,5.60938 C58.6406,5.04688 58.8411,4.61198 59.2422,4.30469 C59.6432,3.9974 60.2135,3.84375 60.9531,3.84375 C61.3177,3.84375 61.6615,3.86979 61.9844,3.92188 C62.3073,3.97396 62.6042,4.05208 62.875,4.15625 M69.9062,6.75 L69.9062,7.23438 L65.3594,7.23438 C65.401,7.91146 65.6042,8.42708 65.9688,8.78125 C66.3333,9.13542 66.8438,9.3125 67.5,9.3125 C67.8854,9.3125 68.2552,9.26562 68.6094,9.17188 C68.9635,9.07812 69.3177,8.94271 69.6719,8.76562 L69.6719,9.6875 C69.3177,9.84375 68.9531,9.96094 68.5781,10.0391 C68.2031,10.1172 67.8281,10.1562 67.4531,10.1562 C66.4844,10.1562 65.7214,9.8776 65.1641,9.32031 C64.6068,8.76302 64.3281,8.00521 64.3281,7.04688 C64.3281,6.06771 64.5938,5.28906 65.125,4.71094 C65.6562,4.13281 66.375,3.84375 67.2812,3.84375 C68.0833,3.84375 68.7214,4.10417 69.1953,4.625 C69.6693,5.14583 69.9062,5.85417 69.9062,6.75 M68.9062,6.45312 C68.9062,5.91146 68.7578,5.47917 68.4609,5.15625 C68.1641,4.83333 67.7708,4.67188 67.2812,4.67188 C66.7292,4.67188 66.2891,4.82812 65.9609,5.14062 C65.6328,5.45312 65.4427,5.89062 65.3906,6.45312 L68.9062,6.45312"/>
</g>

<g fill="none" stroke="#000000" stroke-opacity="1" stroke-width="1" stroke-linecap="square" stroke-linejoin="bevel" transform="matrix(1.99928,0,0,1.99928,296.789,7.9971)"
font-family="sans" font-size="11" font-weight="100" font-style="normal" 
>
</g>

<g fill="none" stroke="#000000" stroke-opacity="1" stroke-width="1" stroke-linecap="square" stroke-linejoin="bevel" transform="matrix(1.99928,0,0,1.99928,296.789,7.9971)"
font-family="Ubuntu" font-size="11" font-weight="400" font-style="normal" 
>
</g>

<g fill="none" stroke="#000000" stroke-opacity="1" stroke-width="1" stroke-linecap="square" stroke-linejoin="bevel" transform="matrix(1.99928,0,0,1.99928,0.00079971,71.9739)"
font-family="Ubuntu" font-size="11" font-weight="400" font-style="normal" 
>
</g>

<g fill="#000000" fill-opacity="1" stroke="#000000" stroke-opacity="1" stroke-width="1" stroke-linecap="square" stroke-linejoin="round" transform="matrix(1.99928,0,0,1.99928,0.00079971,71.9739)"
font-family="Ubuntu" font-size="11" font-weight="400" font-style="normal" 
>
<path vector-effect="none" fill-rule="evenodd" d="M215.41,-18 L215.41,-14.4685 L225.5,-18 L215.41,-21.5315 L215.41,-18"/>
</g>

<g fill="none" stroke="#000000" stroke-opacity="1" stroke-width="1" stroke-linecap="square" stroke-linejoin="bevel" transform="matrix(1.99928,0,0,1.99928,0.00079971,71.9739)"
font-family="Ubuntu" font-size="11" font-weight="400" font-style="normal" 
>
</g>

<g fill="none" stroke="#000000" stroke-opacity="1" stroke-width="1" stroke-linecap="square" stroke-linejoin="bevel" transform="matrix(1,0,0,1,0,0)"
font-family="Ubuntu" font-size="11" font-weight="400" font-style="normal" 
>
</g>
</g>
</svg>
